<?xml version="1.0" encoding="UTF-8" standalone="no"?>
<svg
   xmlns:dc="http://purl.org/dc/elements/1.1/"
   xmlns:cc="http://creativecommons.org/ns#"
   xmlns:rdf="http://www.w3.org/1999/02/22-rdf-syntax-ns#"
   xmlns:svg="http://www.w3.org/2000/svg"
   xmlns="http://www.w3.org/2000/svg"
   xmlns:xlink="http://www.w3.org/1999/xlink"
   viewBox="0 0 48 48"
   height="48"
   width="48"
   version="1.1"
   id="svg2">
  <metadata
     id="metadata8">
    <rdf:RDF>
      <cc:Work
         rdf:about="">
        <dc:format>image/svg+xml</dc:format>
        <dc:type
           rdf:resource="http://purl.org/dc/dcmitype/StillImage" />
        <dc:title></dc:title>
      </cc:Work>
    </rdf:RDF>
  </metadata>
  <defs
     id="defs6">
    <linearGradient
       id="linearGradient4184">
      <stop
         id="stop4186"
         offset="0"
         style="stop-color:#000000;stop-opacity:1;" />
      <stop
         id="stop4188"
         offset="1"
         style="stop-color:#000000;stop-opacity:1" />
    </linearGradient>
    <linearGradient
       id="linearGradient4768">
      <stop
         id="stop4752"
         offset="0"
         style="stop-color:#007400;stop-opacity:1" />
      <stop
         style="stop-color:#ffff00;stop-opacity:1"
         offset="0.49766186"
         id="stop4778" />
      <stop
         id="stop4780"
         offset="1"
         style="stop-color:#ff0000;stop-opacity:1" />
      <stop
         id="stop4754"
         offset="1"
         style="stop-color:#000000;stop-opacity:0" />
    </linearGradient>
    <linearGradient
       gradientTransform="matrix(0.08434819,0,0,0.08477695,1.9175064,1.65313)"
       gradientUnits="userSpaceOnUse"
       y2="407.88248"
       x2="523.0271"
       y1="410.06973"
       x1="13.035683"
       id="linearGradient4756"
       xlink:href="#linearGradient4768" />
    <linearGradient
       gradientTransform="matrix(0.09056604,0,0,0.09056604,0,0.11321)"
       gradientUnits="userSpaceOnUse"
       y2="523.02533"
       x2="359.9324"
       y1="379.93884"
       x1="357.73325"
       id="linearGradient4190"
       xlink:href="#linearGradient4184" />
  </defs>
  <rect
     ry="2.1451385"
     rx="2.1451385"
     y="2.71698"
     x="2.7169812"
     height="42.566036"
     width="42.566036"
     id="rect4748"
     style="opacity:1;fill:url(#linearGradient4756);fill-opacity:1;fill-rule:nonzero" />
  <path
     id="path4156"
     d="M 2.7169811,0 C 0.90156399,0 0,1.11241 0,2.71698 L 0,45.28302 C 0,47.37863 1.5668547,48 2.7169811,48 L 45.283019,48 C 46.757708,48 48,46.70565 48,45.28302 L 48,2.71698 C 48,1.30955 46.750056,0 45.283019,0 Z m 2.264151,2.71698 38.0377359,0 c 1.35849,0 2.264151,0.90566 2.264151,2.26415 l 0,38.03774 c 0,1.35849 -0.905661,2.26415 -2.264151,2.26415 l -38.0377359,0 c -1.3081923,0 -2.264151,-0.90566 -2.264151,-2.26415 l 0,-38.03774 c 0,-1.35849 0.9056604,-2.26415 2.264151,-2.26415 z"
     style="opacity:1;fill:#000000;fill-opacity:1" />
  <path
     id="path4152"
     d="m 19.234139,5.44015 c -0.05562,-0.005 -0.102064,0.0597 -0.102064,0.19759 0,0.11207 -0.0443,0.25217 -0.09852,0.31132 -0.05423,0.0592 -0.130714,0.24347 -0.169812,0.40967 -0.06079,0.25842 -0.01271,0.33821 0.331309,0.55082 0.448909,0.27744 0.507305,0.69845 0.10684,0.76999 -0.520936,0.0931 -0.407194,0.37333 0.481132,1.18514 0.317733,0.29036 0.336998,0.64475 0.03502,0.64475 -0.120861,0 -0.25126,0.051 -0.289741,0.11321 -0.03848,0.0623 -0.195638,0.11321 -0.349175,0.11321 -0.221352,0 -0.293598,0.0723 -0.348997,0.34935 -0.03843,0.19214 -0.151784,0.37941 -0.251887,0.41621 -0.243794,0.0896 -0.347976,0.25775 -0.350059,0.56463 -0.0014,0.20554 0.06119,0.25471 0.324057,0.25471 0.179176,0 0.389111,-0.0764 0.466627,-0.16981 0.211381,-0.2547 0.439665,-0.20495 0.519517,0.11321 0.03907,0.15566 0.102783,0.28302 0.141509,0.28302 0.03872,0 0.332307,-0.28812 0.652358,-0.64033 0.60979,-0.67107 0.950767,-0.75705 0.950767,-0.2395 0,0.29531 -0.491899,0.87983 -0.740448,0.87983 -0.309537,0 -0.258147,0.84872 0.0727,1.20088 0.153872,0.16379 0.190116,0.27286 0.107547,0.32388 -0.195224,0.12066 -0.754614,-0.0435 -0.973938,-0.28584 -0.109503,-0.121 -0.286201,-0.22005 -0.392689,-0.22005 -0.106478,0 -0.315128,-0.0953 -0.46362,-0.21174 -0.148492,-0.11641 -0.435493,-0.24784 -0.637854,-0.29204 -0.202361,-0.0442 -0.367925,-0.12717 -0.367925,-0.18449 0,-0.0573 -0.509434,-0.10419 -1.132075,-0.10419 -0.629986,0 -1.132075,0.0472 -1.132075,0.10631 0,0.0584 -0.233318,0.14121 -0.518456,0.18397 -0.285138,0.0428 -0.545226,0.14773 -0.578066,0.23331 -0.03285,0.0856 -0.121883,0.15566 -0.19776,0.15566 -0.07588,0 -0.257595,0.12736 -0.403832,0.28302 -0.146237,0.15566 -0.333496,0.28302 -0.416037,0.28302 -0.217413,0 -0.185013,0.11278 0.104717,0.36509 0.374898,0.32648 1.762468,0.25284 2.153242,-0.11427 0.259581,-0.24386 0.288288,-0.24714 0.658196,-0.0762 0.212695,0.0983 0.488562,0.24113 0.61309,0.31752 0.779502,0.47814 0.996371,0.6382 1.137736,0.84003 0.101579,0.14502 0.352406,0.25493 0.699056,0.30619 0.297347,0.044 0.627339,0.15756 0.733373,0.25242 0.180227,0.16124 0.172846,0.19807 -0.113207,0.5648 -0.298361,0.38251 -0.321348,0.39054 -0.920342,0.32353 -0.429111,-0.048 -0.661379,-0.13604 -0.77052,-0.29187 -0.08594,-0.12269 -0.219054,-0.22305 -0.295754,-0.22305 -0.0767,0 -0.338444,-0.10138 -0.581604,-0.22535 -0.243161,-0.12398 -0.611035,-0.25719 -0.817571,-0.29594 -0.206536,-0.0387 -0.403492,-0.11566 -0.437618,-0.17087 -0.08529,-0.138 -1.037616,-0.12705 -1.124115,0.0129 -0.03848,0.0623 -0.271658,0.11321 -0.518279,0.11321 -0.283263,0 -0.613588,0.10423 -0.896816,0.28302 -0.246584,0.15566 -0.516307,0.28302 -0.599292,0.28302 -0.08299,0 -0.297221,0.15283 -0.476179,0.33962 -0.178959,0.18679 -0.370108,0.33962 -0.424883,0.33962 -0.184628,0 -0.877004,0.59154 -0.877004,0.7493 0,0.086 -0.08258,0.15636 -0.183608,0.15636 -0.150421,0 -0.158234,0.0307 -0.04281,0.16982 0.09364,0.11282 0.347412,0.16981 0.756191,0.16981 0.338391,0 0.837191,0.0559 1.108373,0.12417 0.476332,0.11994 0.515594,0.10877 1.158432,-0.32777 0.365977,-0.24853 0.733215,-0.53366 0.816154,-0.63361 0.08295,-0.0999 0.216762,-0.18166 0.297348,-0.18166 0.08059,0 0.167157,-0.0621 0.192453,-0.13797 0.06714,-0.2014 0.916609,0.1 1.233962,0.43779 0.137542,0.14641 0.305492,0.26622 0.373054,0.26622 0.06756,0 0.186322,0.10188 0.264091,0.22641 0.12096,0.19369 0.264009,0.22642 0.989506,0.22642 0.489926,0 0.848172,-0.0478 0.848172,-0.11321 0,-0.0623 0.251672,-0.11321 0.559316,-0.11321 0.307652,0 0.590881,-0.0509 0.629363,-0.11321 0.03848,-0.0623 0.208072,-0.1132 0.376769,-0.1132 0.278409,0 1.29566,-0.70877 1.511143,-1.05283 0.04409,-0.0704 0.515179,-0.13055 1.111203,-0.14204 0.593697,-0.0114 1.089338,-0.0747 1.163031,-0.14841 0.346297,-0.3463 0.87559,-0.0178 0.87559,0.5434 0,0.12862 0.07187,0.23384 0.159728,0.23384 0.17943,0 0.743851,0.62447 0.749647,0.82942 0.005,0.17678 0.39873,0.64228 0.543219,0.64228 0.0629,0 0.147889,0.15283 0.188915,0.33962 0.04103,0.18679 0.109998,0.33962 0.153361,0.33962 0.04336,0 0.179551,0.22877 0.302476,0.50838 0.122916,0.27959 0.281636,0.50889 0.352712,0.50943 0.07108,6.3e-4 0.161166,0.12842 0.200236,0.28408 0.03907,0.15566 0.12094,0.28302 0.182017,0.28302 0.172963,0 0.130539,0.40896 -0.05873,0.56604 -0.09339,0.0775 -0.169812,0.23233 -0.169812,0.34404 0,0.11171 -0.140096,0.30757 -0.31132,0.43532 l -0.311321,0.23225 0.401887,0.004 c 0.456625,0.004 0.673585,0.16851 0.673585,0.5105 0,0.31149 -0.418571,0.66039 -0.702949,0.58603 -0.123495,-0.0323 -0.296094,-0.0312 -0.38349,0.002 -0.184709,0.0709 -0.216139,0.37641 -0.03874,0.37641 0.06928,0 0.105183,0.1772 0.0849,0.41905 -0.02813,0.33537 -0.108691,0.46163 -0.403655,0.63325 -0.327904,0.19079 -0.670932,0.21902 -3.113208,0.25578 -1.509582,0.0227 -3.07588,0.0972 -3.480601,0.16539 -0.404713,0.0682 -0.96509,0.15205 -1.245283,0.18644 -0.280184,0.0344 -0.577823,0.11813 -0.66138,0.18608 -0.09765,0.0794 -0.785035,0.11698 -1.924528,0.10507 -1.890267,-0.0197 -4.012138,0.14741 -4.074411,0.32105 -0.04769,0.133 -0.890357,0.13898 -0.971993,0.007 -0.03341,-0.0541 -0.364132,-0.13263 -0.734964,-0.17458 C 9.616192,25.01978 9.4773588,24.95573 9.1774041,24.6141 8.986464,24.39663 8.8301757,24.11112 8.8301757,23.9796 c 0,-0.41424 0.7357449,-1.18618 1.3300123,-1.39528 0.295834,-0.1041 0.627933,-0.23658 0.737971,-0.29452 0.809542,-0.42628 6.505241,-0.34791 7.893574,0.10861 0.217512,0.0715 0.685691,0.13001 1.040448,0.13001 0.354756,0 0.676494,0.051 0.714976,0.11321 0.03874,0.0627 0.552338,0.11321 1.150825,0.11321 0.970316,0 1.154747,-0.0352 1.801416,-0.34387 0.70329,-0.33565 0.730974,-0.36585 1.167629,-1.27359 0.245995,-0.51138 0.480881,-1.1451 0.52217,-1.40837 0.0927,-0.59098 -0.02199,-1.16285 -0.233301,-1.16285 -0.08702,0 -0.239827,-0.1247 -0.339622,-0.27701 -0.336797,-0.51401 -1.557853,-0.60875 -4.521934,-0.35094 -0.691237,0.0601 -1.18868,0.24122 -1.18868,0.43266 0,0.0584 -0.130099,0.20842 -0.289033,0.33344 -0.158943,0.12502 -0.262143,0.25401 -0.229422,0.28673 0.03271,0.0327 0.245616,-0.0826 0.473172,-0.25613 0.342358,-0.26113 0.465071,-0.29729 0.710732,-0.20997 0.22982,0.0817 0.296992,0.1814 0.296992,0.44134 1.81e-4,0.21298 0.10958,0.44312 0.299116,0.62954 0.276082,0.27152 0.401039,0.29999 1.641332,0.37234 0.738358,0.0431 1.520701,0.089 1.738621,0.10224 0.355327,0.0215 0.399718,0.0607 0.430719,0.37978 0.0276,0.28408 -0.02942,0.39893 -0.283019,0.57011 -0.774294,0.52262 -0.902328,0.54642 -2.875825,0.53278 -1.043557,-0.007 -1.990167,-0.0543 -2.103538,-0.10454 -0.25536,-0.11317 -1.315878,-0.3816 -1.847582,-0.46769 -0.21792,-0.0353 -0.449197,-0.10641 -0.514033,-0.15814 -0.06484,-0.0517 -0.79973,-0.15196 -1.633019,-0.2227 -1.547674,-0.13137 -3.656529,-0.002 -3.903892,0.23862 -0.05915,0.0577 -0.211979,0.10446 -0.339623,0.10401 -0.35567,-0.001 -2.3273457,1.03612 -2.4668627,1.29782 -0.2191426,0.41106 -0.9221655,1.19363 -1.0722878,1.19363 -0.1040241,0 -0.1457547,0.21099 -0.1457547,0.73585 0,0.55104 0.039271,0.73585 0.1565449,0.73585 0.166089,0 0.2921575,0.33297 0.2946933,0.77866 8.514e-4,0.14811 0.1798984,0.46668 0.3978184,0.7079 0.2179291,0.24121 0.3962264,0.48945 0.3962264,0.55153 0,0.0621 0.03821,0.10739 0.084906,0.10065 0.1457932,-0.021 0.5943396,0.14809 0.5943396,0.22411 0,0.0398 0.1600333,0.14334 0.355719,0.22996 0.2930626,0.12972 0.6349449,0.13599 1.9386786,0.0361 0.870548,-0.0667 1.637694,-0.17607 1.704659,-0.24304 0.213093,-0.21309 0.736658,-0.14243 0.87612,0.11816 0.138539,0.25887 -0.05716,0.8509 -0.492276,1.48974 -0.117836,0.17301 -0.263144,0.49141 -0.322818,0.70755 C 12.717384,29.8231 12.624138,30 12.569753,30 c -0.05439,0 -0.130987,0.14585 -0.170166,0.32423 -0.03918,0.17838 -0.157875,0.42036 -0.263738,0.53774 -0.210657,0.23356 -0.475472,0.90995 -0.475472,1.21433 0,0.10578 -0.127354,0.3941 -0.283019,0.64068 -0.155655,0.24658 -0.283726,0.53845 -0.283726,0.64865 -0.0013,0.36685 -1.6399212,1.27465 -2.4521812,1.35849 -0.3320423,0.0343 -0.6037147,0.0999 -0.6037147,0.14593 0,0.046 -0.1456771,0.144 -0.3237028,0.21774 l -0.3237029,0.13408 -0.080837,1.87324 c -0.086699,2.00842 -0.1161239,2.18791 -0.3592575,2.18791 -0.086735,0 -0.1577831,0.0959 -0.1577831,0.21315 0,0.28973 0.4452954,0.39484 0.6992335,0.16503 0.3394687,-0.30722 0.5460495,-0.11179 0.5460495,0.51651 0,0.65933 0.1581965,1.14304 0.3737618,1.14304 0.2213434,0 0.615769,0.45883 0.7056016,0.82076 0.073965,0.29805 0.1068407,0.31109 0.7724649,0.30725 0.8092529,-0.005 0.9835759,-0.0866 1.7731129,-0.83526 0.557153,-0.52827 0.583188,-0.57868 0.516332,-0.99675 -0.104558,-0.65387 -0.677924,-1.17751 -1.441097,-1.31622 -0.332522,-0.0604 -0.643435,-0.086 -0.690919,-0.0566 -0.047484,0.0293 -0.1151147,-0.039 -0.1503539,-0.15195 -0.035239,-0.11291 -0.1113863,-0.29359 -0.169104,-0.40171 -0.1775276,-0.33253 -0.1201993,-0.50241 0.2913329,-0.86374 0.217929,-0.19134 0.396226,-0.41795 0.396226,-0.50359 0,-0.25682 0.415675,-0.55315 0.930778,-0.66351 0.2664,-0.0571 0.662623,-0.14889 0.880543,-0.20395 0.217929,-0.055 0.735788,-0.18314 1.150825,-0.28478 0.605453,-0.14828 0.880825,-0.29533 1.393338,-0.74381 0.52896,-0.46288 0.713928,-0.55897 1.075648,-0.55897 0.240245,0 0.453839,-0.046 0.474587,-0.10224 0.02076,-0.0562 0.292395,-0.22215 0.603715,-0.3688 0.488586,-0.23017 0.570972,-0.31685 0.601592,-0.63361 0.02661,-0.2753 0.09025,-0.36704 0.254717,-0.36704 0.141193,0 0.219163,-0.078 0.219163,-0.21881 0,-0.31772 0.620502,-0.72625 0.96987,-0.63856 0.432136,0.10846 1.140759,0.81283 1.411026,1.40235 0.133775,0.2918 0.299934,0.64817 0.369163,0.7921 0.09403,0.19548 0.09138,0.31696 -0.01026,0.47972 -0.07484,0.11984 -0.136025,0.29491 -0.136025,0.38915 0,0.0942 -0.03977,0.1714 -0.08844,0.1714 -0.04867,0 -0.158419,0.23636 -0.24375,0.52536 -0.118814,0.40241 -0.124472,0.57448 -0.02459,0.73443 0.07174,0.11487 0.130365,0.27731 0.130365,0.36103 0,0.0837 0.140097,0.22456 0.311321,0.31291 0.171224,0.0883 0.362264,0.20101 0.424529,0.25047 0.06226,0.0495 0.461281,0.3486 0.886733,0.66457 0.721477,0.5358 1.010963,0.80465 1.98184,1.84174 0.207876,0.22206 0.449859,0.40383 0.537736,0.40383 0.08787,0 0.159728,0.0434 0.159728,0.0966 0,0.0532 0.130604,0.23773 0.290272,0.41002 0.258466,0.27888 0.350642,0.30737 0.839681,0.26038 0.307109,-0.0295 0.635003,-0.13849 0.743809,-0.24729 0.137579,-0.13758 0.230044,-0.15929 0.315212,-0.0741 0.06627,0.0663 0.330932,0.12046 0.588149,0.12046 0.37824,0 0.495585,-0.0522 0.61362,-0.27276 0.232601,-0.43462 -0.1274,-1.93237 -0.464858,-1.93408 -0.08376,-4.5e-4 -0.174895,-0.0516 -0.202536,-0.11391 -0.02765,-0.0623 -0.14461,-0.21452 -0.259847,-0.33821 -0.170454,-0.18296 -0.22752,-0.19565 -0.306013,-0.0686 -0.06586,0.10656 -0.384311,0.16671 -1.003302,0.18962 -0.981247,0.0363 -0.896083,0.0729 -1.89835,-0.81156 -0.624607,-0.55116 -0.642813,-1.65303 -0.03272,-1.97954 0.115996,-0.0621 0.210849,-0.20449 0.210849,-0.31645 0,-0.11196 0.03458,-0.238 0.07677,-0.28019 0.14342,-0.14341 0.596571,-1.60117 0.599469,-1.92842 0.0029,-0.31926 0.01253,-0.32416 0.481132,-0.24923 0.262995,0.0421 0.555913,0.14571 0.650944,0.23048 0.25228,0.22507 1.174584,0.6977 1.54086,0.78963 0.173905,0.0436 0.446732,0.17126 0.606191,0.28355 0.159451,0.11229 0.697465,0.29783 1.195578,0.41232 0.498113,0.11449 0.931137,0.2357 0.962264,0.2694 0.159242,0.17238 0.513268,0.11179 0.68632,-0.11763 0.17319,-0.2296 0.241373,-0.24474 0.685437,-0.15106 0.374364,0.079 0.529724,0.17994 0.644399,0.41922 0.0831,0.17339 0.249303,0.37662 0.369339,0.45159 0.120045,0.075 0.218279,0.19267 0.218279,0.26144 0,0.0688 0.101886,0.2172 0.226415,0.32989 0.124528,0.1127 0.226415,0.27083 0.226415,0.35148 0,0.0806 0.06905,0.18741 0.153361,0.2372 0.08431,0.0498 0.219647,0.21793 0.300884,0.37359 0.08124,0.15566 0.241603,0.34953 0.35625,0.43089 0.114648,0.0814 0.208373,0.21062 0.208373,0.28727 0,0.0767 0.150758,0.3158 0.335023,0.53137 0.184266,0.21557 0.337087,0.44948 0.339623,0.51969 0.0025,0.0702 0.06977,0.18167 0.149469,0.24782 0.07971,0.0661 0.347158,0.51772 0.59434,1.00348 0.503216,0.98889 0.639622,1.16816 0.888851,1.16816 0.343861,0 0.736804,0.26275 0.868515,0.58072 0.114466,0.27634 0.198344,0.32494 0.560554,0.32494 0.330683,0 0.439052,-0.0506 0.485023,-0.22642 0.07026,-0.26869 0.44414,-0.30053 0.647759,-0.0552 0.173905,0.20955 0.451593,0.0285 0.451593,-0.29434 0,-0.11473 0.15283,-0.38265 0.339622,-0.5954 0.258041,-0.29389 0.339623,-0.49727 0.339623,-0.8464 0,-0.25273 -0.05981,-0.49649 -0.132842,-0.54163 -0.146763,-0.0907 -0.756245,-0.23507 -1.621875,-0.3842 -0.993138,-0.17109 -1.216944,-0.2535 -1.273231,-0.46874 -0.03026,-0.11572 -0.09528,-0.21032 -0.14434,-0.21032 -0.04906,0 -0.252229,-0.28903 -0.451592,-0.64228 -0.29405,-0.52102 -0.373882,-0.80958 -0.423113,-1.52795 -0.03712,-0.54153 -0.120415,-0.93504 -0.214387,-1.01303 -0.09305,-0.0772 -0.153715,-0.35767 -0.153715,-0.71108 0,-0.45836 0.05268,-0.6287 0.245165,-0.79352 0.225745,-0.19329 0.267945,-0.19602 0.535613,-0.0336 0.15984,0.097 0.331244,0.33308 0.380838,0.52447 0.04959,0.1914 0.133503,0.34794 0.186439,0.34794 0.05293,0 0.162893,0.16557 0.244457,0.36792 0.161216,0.39997 0.580077,0.99791 0.98296,1.40325 0.140097,0.14095 0.254717,0.36208 0.254717,0.49139 0,0.12931 0.07641,0.26434 0.169811,0.30018 0.09339,0.0358 0.169812,0.14493 0.169812,0.24233 0,0.0974 0.07924,0.2647 0.176179,0.37182 0.146671,0.16206 0.232303,0.17372 0.509788,0.069 0.183405,-0.0692 0.361093,-0.21285 0.394811,-0.3191 0.06091,-0.19193 -0.152897,-0.76455 -0.427005,-1.14375 -0.185651,-0.25684 0.0018,-0.57905 0.368279,-0.63308 0.464078,-0.0684 0.789269,-0.35827 0.789269,-0.70348 0,-0.17596 0.05094,-0.35138 0.113207,-0.38986 0.06226,-0.0385 0.113208,-0.34738 0.113208,-0.68632 0,-0.57794 -0.02885,-0.64227 -0.464682,-1.03602 -0.255596,-0.23092 -0.507999,-0.53373 -0.560908,-0.67288 -0.06696,-0.17612 -0.226799,-0.27634 -0.525884,-0.32972 -0.747596,-0.13342 -1.187386,-0.77394 -0.798468,-1.16285 0.11194,-0.11195 0.109672,-0.15953 -0.01114,-0.2342 -0.24835,-0.15349 -0.09828,-0.5065 0.3,-0.7056 l 0.372169,-0.18609 -0.40224,-0.24852 c -0.736139,-0.45496 -0.799712,-0.84107 -0.229599,-1.39475 0.21792,-0.21165 0.396226,-0.42142 0.396226,-0.46628 0,-0.0448 0.08329,-0.16483 0.185024,-0.26657 0.131357,-0.13136 0.1453,-0.19826 0.04811,-0.23066 -0.319825,-0.1066 -0.906055,-0.83463 -0.977122,-1.21344 -0.09038,-0.48182 -0.07874,-0.49665 0.454599,-0.5832 0.380422,-0.0617 0.462873,-0.0238 0.919634,0.42453 0.275981,0.27085 0.501828,0.4351 0.501828,0.36492 0,-0.23673 -0.39166,-0.81249 -0.587618,-0.86374 -0.23952,-0.0626 -0.391949,-0.61059 -0.238621,-0.85631 0.06198,-0.0993 0.235001,-0.2436 0.384553,-0.32052 0.243641,-0.1253 0.198924,-0.14001 -0.429305,-0.14151 -0.595128,-0.001 -0.727771,-0.0397 -0.877358,-0.2533 -0.310859,-0.4438 -0.199559,-1.07005 0.327417,-1.84263 0.174702,-0.25613 0.231898,-0.52052 0.231898,-1.07547 2.72e-4,-0.61825 -0.04939,-0.80797 -0.310966,-1.18673 -0.356559,-0.51632 -0.375685,-0.66826 -0.140802,-1.11863 0.09301,-0.17835 0.169104,-0.40961 0.169104,-0.51386 0,-0.27104 -0.373973,-0.96764 -0.842335,-1.56881 -0.391807,-0.50289 -0.402948,-0.54429 -0.402948,-1.51061 0,-1.02787 -0.08625,-1.2443 -0.379069,-0.95148 -0.09397,0.094 -0.240617,0.17088 -0.326002,0.17088 -0.08539,0 -0.210231,0.0549 -0.277359,0.12205 -0.06714,0.0671 -0.268365,0.10534 -0.44717,0.0849 -0.293234,-0.0335 -0.328496,-0.0833 -0.359434,-0.50766 -0.02801,-0.38446 0.01339,-0.50453 0.226415,-0.65625 0.240381,-0.1712 0.245281,-0.19457 0.06262,-0.29929 -0.165274,-0.0948 -0.198114,-0.28008 -0.198114,-1.11864 0,-0.67525 0.04856,-1.05422 0.147878,-1.15471 0.08132,-0.0823 0.181615,-0.2388 0.222877,-0.34776 0.111632,-0.29481 -0.180322,-0.24849 -0.586203,0.093 -0.427635,0.35983 -0.824372,0.33182 -0.91645,-0.0647 -0.0531,-0.22866 -0.144827,-0.28972 -0.477241,-0.31769 -0.517241,-0.0435 -0.610323,-0.16163 -0.709492,-0.89929 l -0.07995,-0.59434 0.321934,-0.004 0.321934,-0.004 -0.408961,-0.36368 C 33.498188,8.25857 33.283272,8.00576 33.245524,7.8968 33.204494,7.77837 33.06165,7.69869 32.890335,7.69869 c -0.242943,0 -0.286556,0.0517 -0.286556,0.33962 0,0.28679 -0.04403,0.33962 -0.283019,0.33962 -0.307255,0 -0.393434,0.27303 -0.119399,0.37819 0.222602,0.0854 0.34068,0.78587 0.18237,1.08166 -0.07015,0.13108 -0.219679,0.23827 -0.33237,0.23827 -0.243985,0 -0.540069,0.30758 -0.597524,0.62087 -0.05719,0.31187 -0.85895,0.45119 -1.143219,0.19864 -0.281107,-0.24974 -0.335819,-0.13216 -0.204127,0.43904 0.0629,0.27284 0.115559,0.70849 0.117099,0.96792 0.0015,0.25943 0.05204,0.48868 0.112146,0.50943 0.06011,0.0208 0.143208,0.3278 0.18467,0.68243 0.07959,0.68074 0.03108,0.76804 -0.790861,1.42571 -0.125506,0.10042 -0.18237,0.32898 -0.18237,0.73231 0,0.55262 -0.03299,0.61965 -0.572936,1.16639 -0.479366,0.4854 -0.585666,0.67061 -0.652005,1.13438 -0.05849,0.40891 -0.133658,0.56457 -0.28638,0.59399 -0.252471,0.0486 -0.781329,-0.42221 -0.703125,-0.62601 0.03101,-0.0808 0.01108,-0.14699 -0.0444,-0.14699 -0.05549,0 -0.159794,-0.1783 -0.231721,-0.39623 -0.07192,-0.21792 -0.199705,-0.39622 -0.283904,-0.39622 -0.0842,0 -0.269031,-0.24198 -0.41073,-0.53774 -0.141709,-0.29575 -0.343993,-0.63962 -0.449647,-0.76415 -0.105646,-0.12453 -0.290641,-0.40472 -0.411085,-0.62264 -0.213654,-0.38656 -0.213892,-0.40451 -0.0097,-0.73585 0.115101,-0.18679 0.240047,-0.42877 0.277713,-0.53774 0.03768,-0.10896 0.113572,-0.19811 0.168572,-0.19811 0.055,0 0.09994,-0.0632 0.09994,-0.14045 0,-0.11989 0.580935,-1.41533 0.91362,-2.0372 0.05785,-0.10812 0.105248,-0.37216 0.105248,-0.58674 0,-0.50491 -0.115517,-0.53822 -1.734729,-0.49882 -0.972589,0.0237 -1.340294,-0.007 -1.482311,-0.12523 -0.143049,-0.11873 -0.220551,-0.12491 -0.319811,-0.0256 -0.18855,0.18855 -0.440918,0.15792 -0.765036,-0.093 C 22.404583,9.8073 22.504409,9.59542 23.15345,9.2331 23.401103,9.09484 23.66301,8.86418 23.735408,8.72048 23.807798,8.57677 23.998838,8.33689 24.159936,8.18752 24.582345,7.79584 24.52936,7.46658 24.01825,7.30697 c -0.201745,-0.063 -0.305715,-0.0242 -0.436556,0.16256 -0.144127,0.20578 -0.241121,0.23329 -0.604246,0.17194 -0.389325,-0.0658 -0.45265,-0.0411 -0.631662,0.24675 -0.292021,0.46958 -0.630925,0.82943 -0.781309,0.82943 -0.226841,0 -0.394635,-0.54791 -0.394635,-1.28862 l 0,-0.71215 -0.481132,0.01 C 20.229857,6.73588 20.206006,6.71988 20.173085,6.38159 20.144525,6.0878 20.079245,6.01468 19.794725,5.95777 19.581396,5.91507 19.428459,5.80278 19.391599,5.66184 19.354679,5.52063 19.289791,5.44592 19.23417,5.44091 Z m 4.950354,6.10755 c 0.352106,-0.007 0.735398,0.0501 0.830483,0.16468 0.154153,0.18575 0.08055,0.66517 -0.183431,1.19434 -0.09288,0.18617 -0.241589,0.33856 -0.330425,0.33856 -0.19968,0 -0.614328,-0.40188 -0.614328,-0.5954 0,-0.0784 -0.101886,-0.20631 -0.226415,-0.28408 -0.253675,-0.15842 -0.295988,-0.47736 -0.09057,-0.68278 0.08587,-0.0859 0.340821,-0.12993 0.614682,-0.13532 z"
     style="fill:#000000" />
</svg>
